<svg xmlns="http://www.w3.org/2000/svg" viewBox="0 0 512 512">
  <defs>
    <radialGradient id="bg" cx="50%" cy="45%" r="65%"><stop offset="0" stop-color="#111827"/><stop offset="1" stop-color="#030712"/></radialGradient>
    <linearGradient id="g" x1="0" x2="1" y1="0" y2="1"><stop stop-color="#00D4FF"/><stop offset="0.45" stop-color="#2563EB"/><stop offset="1" stop-color="#C026D3"/></linearGradient>
    <linearGradient id="face" x1="0" x2="1"><stop stop-color="#FFFFFF"/><stop offset="1" stop-color="#BFD7FF"/></linearGradient>
    <filter id="glow" x="-50%" y="-50%" width="200%" height="200%"><feGaussianBlur stdDeviation="5" result="blur"/><feMerge><feMergeNode in="blur"/><feMergeNode in="SourceGraphic"/></feMerge></filter>
  </defs>
  <rect width="512" height="512" rx="96" fill="url(#bg)"/>
  <g filter="url(#glow)">
    <path d="M106 242a150 150 0 0 1 300 0" fill="none" stroke="url(#g)" stroke-width="44" stroke-linecap="round"/>
    <path d="M406 270a150 150 0 0 1-300 0" fill="none" stroke="url(#g)" stroke-width="44" stroke-linecap="round"/>
    <path d="M90 238h60m212 0h60M60 198h46l32 28h52M452 198h-46l-32 28h-52M60 314h46l32-28h52M452 314h-46l-32-28h-52" fill="none" stroke="url(#g)" stroke-width="14" stroke-linecap="round" stroke-linejoin="round"/>
    <circle cx="58" cy="198" r="13" fill="#030712" stroke="#00D4FF" stroke-width="9"/>
    <circle cx="58" cy="314" r="13" fill="#030712" stroke="#00D4FF" stroke-width="9"/>
    <circle cx="454" cy="198" r="13" fill="#030712" stroke="#C026D3" stroke-width="9"/>
    <circle cx="454" cy="314" r="13" fill="#030712" stroke="#C026D3" stroke-width="9"/>
  </g>
  <g>
    <rect x="156" y="202" width="200" height="116" rx="48" fill="url(#face)"/>
    <rect x="180" y="222" width="152" height="76" rx="34" fill="#050816"/>
    <rect x="204" y="246" width="18" height="34" rx="9" fill="url(#g)"/>
    <rect x="290" y="246" width="18" height="34" rx="9" fill="url(#g)"/>
    <path d="M256 202v-44" stroke="url(#g)" stroke-width="14" stroke-linecap="round"/>
    <circle cx="256" cy="144" r="23" fill="url(#g)"/>
    <rect x="142" y="238" width="24" height="48" rx="12" fill="#00D4FF"/>
    <rect x="346" y="238" width="24" height="48" rx="12" fill="#8B5CF6"/>
  </g>
</svg>
